<svg viewBox="0 0 200 260" xmlns="http://www.w3.org/2000/svg">
  <g fill="none" stroke="#CBB26A" stroke-width="10" stroke-linecap="round" stroke-linejoin="round">
    <!-- Diagonal bar -->
    <path d="M 118,90 L 64,234"/>
    <!-- Spiral tail -->
    <path d="M 100,122
             C 106,142 116,156 116,176
             C 116,198 96,208 84,196
             C 75,186 82,170 96,172
             C 105,174 106,184 99,188"/>
    <!-- Left loop -->
    <path d="M 100,112
             C 78,98 40,90 28,106
             C 18,122 38,142 66,138
             C 82,135 94,127 100,119"/>
    <!-- Right loop -->
    <path d="M 100,112
             C 122,98 160,90 172,106
             C 182,122 162,142 134,138
             C 118,135 106,127 100,119"/>
    <!-- Top loop -->
    <path d="M 110,122
             C 101,100 82,72 82,52
             C 82,36 118,36 118,52
             C 118,72 99,100 90,122"/>
  </g>
</svg>
